# xmcd
#
# Track frame offsets:
#	155
#	20585
#	36832
#	56402
#	86992
#	108480
#	123025
#	145675
#	164640
#
# Disc length: 2412 seconds
#
# Revision: 0
# Processed by: cddbd v1.5.1PL2 Copyright (c) Steve Scherf et al.
# Submitted via: EasyCDDAExtractor 9.0.0.1
#
DISCID=76096a09
DTITLE=Big Dog - New Tricks
DYEAR=1988
DGENRE=Country
TTITLE0=Emotional Girl
TTITLE1=Hoping You'll Dance
TTITLE2=Up To You
TTITLE3=Yuppie Blues
TTITLE4=Think It Over (Live)
TTITLE5=Nick Of Time
TTITLE6=All I Really Needed
TTITLE7=Wedge
TTITLE8=Still Havin Fun
EXTD=
EXTT0=
EXTT1=
EXTT2=
EXTT3=
EXTT4=
EXTT5=
EXTT6=
EXTT7=
EXTT8=
PLAYORDER=
